#Comment line ignore any data following # character 
#Hierarchical Translation and Rotation (.htr) file 
[Header]	
#Header keywords are followed by a single value 
FileType HTR		#Single word string
DataType HTRS		#Translation followed by rotation and scale data
FileVersion 1		#integer
NumSegments 84		#integer
NumFrames 2		#integer
DataFrameRate 30		#integer, data frame rate in this file
EulerRotationOrder ZYX
CalibrationUnits mm
RotationUnits Degrees
GlobalAxisofGravity Y
BoneLengthAxis Y
ScaleFactor 1.00
[SegmentNames&Hierarchy]
#CHILD	PARENT
MASTER GLOBAL
root MASTER
chest root
L_mid_tent01 root
R_mid_tent01 root
spine01 root
Bip01_Neck chest
L_humerus chest
R_humerus chest
weapon_bone chest
Bip01_Head Bip01_Neck
eye_left_bone Bip01_Head
eye_right_bone Bip01_Head
L_forearm L_humerus
L_front_hand L_forearm
L_weapon_bone L_forearm
L_front_hand01_01 L_front_hand
L_front_hand02_01 L_front_hand
L_front_hand03_01 L_front_hand
L_front_hand01_02 L_front_hand01_01
L_front_hand02_02 L_front_hand02_01
L_front_hand03_02 L_front_hand03_01
R_forearm R_humerus
R_front_hand R_forearm
R_weapon_bone R_forearm
R_front_hand01_01 R_front_hand
R_front_hand02_01 R_front_hand
R_front_hand03_01 R_front_hand
R_front_hand01_02 R_front_hand01_01
R_front_hand02_02 R_front_hand02_01
R_front_hand03_02 R_front_hand03_01
null_rope01_connect L_mid_tent01
Rope1_Seg01 null_rope01_connect
Rope1_Seg02 Rope1_Seg01
Rope1_Seg03 Rope1_Seg02
Rope1_Seg04 Rope1_Seg03
Rope1_Seg05 Rope1_Seg04
Rope1_Seg06 Rope1_Seg05
Rope1_Seg07 Rope1_Seg06
Rope1_Seg09 Rope1_Seg07
L_mid_hand01 Rope1_Seg09
L_mid_hand02 Rope1_Seg09
L_mid_hand03 Rope1_Seg09
null_rope02_connect R_mid_tent01
Rope2_Seg01 null_rope02_connect
Rope2_Seg02 Rope2_Seg01
Rope2_Seg03 Rope2_Seg02
Rope2_Seg04 Rope2_Seg03
Rope2_Seg05 Rope2_Seg04
Rope2_Seg06 Rope2_Seg05
Rope2_Seg07 Rope2_Seg06
Rope2_Seg09 Rope2_Seg07
R_mid_hand01 Rope2_Seg09
R_mid_hand02 Rope2_Seg09
R_mid_hand03 Rope2_Seg09
spine02 spine01
spine03 spine02
pelvis spine03
null_rope03_connect pelvis
null_rope04_connect pelvis
Rope3_Seg01 null_rope03_connect
Rope3_Seg02 Rope3_Seg01
Rope3_Seg03 Rope3_Seg02
Rope3_Seg04 Rope3_Seg03
Rope3_Seg05 Rope3_Seg04
Rope3_Seg06 Rope3_Seg05
Rope3_Seg07 Rope3_Seg06
Rope3_Seg08 Rope3_Seg07
Rope3_Seg09 Rope3_Seg08
R_rear_hand01 Rope3_Seg09
R_rear_hand02 Rope3_Seg09
R_rear_hand03 Rope3_Seg09
Rope4_Seg01 null_rope04_connect
Rope4_Seg02 Rope4_Seg01
Rope4_Seg03 Rope4_Seg02
Rope4_Seg04 Rope4_Seg03
Rope4_Seg05 Rope4_Seg04
Rope4_Seg06 Rope4_Seg05
Rope4_Seg07 Rope4_Seg06
Rope4_Seg08 Rope4_Seg07
Rope4_Seg09 Rope4_Seg08
L_rear_hand01 Rope4_Seg09
L_rear_hand02 Rope4_Seg09
L_rear_hand03 Rope4_Seg09
[BasePosition]
#SegmentName Tx, Ty, Tz, Rx, Ry, Rz, BoneLength
MASTER 0.000000 0.000000 0.000000 -90.000000 0.000000 0.000000 10.000000 
root 0.000000 0.000000 0.000000 0.000000 0.000000 0.000000 10.000000 
chest 0.000000 0.000000 0.000000 0.000000 0.000000 0.000000 10.000000 
L_mid_tent01 0.000000 0.000000 0.000000 0.000000 0.000000 0.000000 10.000000 
R_mid_tent01 0.000000 0.000000 0.000000 0.000000 0.000000 0.000000 10.000000 
spine01 0.000000 0.000000 0.000000 0.000000 0.000000 0.000000 10.000000 
Bip01_Neck 0.000000 0.000000 0.000000 0.000000 0.000000 0.000000 10.000000 
L_humerus 0.000000 0.000000 0.000000 0.000000 0.000000 0.000000 10.000000 
R_humerus 0.000000 0.000000 0.000000 0.000000 0.000000 0.000000 10.000000 
weapon_bone 0.000000 0.000000 0.000000 0.000000 0.000000 0.000000 10.000000 
Bip01_Head 0.000000 0.000000 0.000000 0.000000 0.000000 0.000000 10.000000 
eye_left_bone 0.000000 0.000000 0.000000 0.000000 0.000000 0.000000 10.000000 
eye_right_bone 0.000000 0.000000 0.000000 0.000000 0.000000 0.000000 10.000000 
L_forearm 0.000000 0.000000 0.000000 0.000000 0.000000 0.000000 10.000000 
L_front_hand 0.000000 0.000000 0.000000 0.000000 0.000000 0.000000 10.000000 
L_weapon_bone 0.000000 0.000000 0.000000 0.000000 0.000000 0.000000 10.000000 
L_front_hand01_01 0.000000 0.000000 0.000000 0.000000 0.000000 0.000000 10.000000 
L_front_hand02_01 0.000000 0.000000 0.000000 0.000000 0.000000 0.000000 10.000000 
L_front_hand03_01 0.000000 0.000000 0.000000 0.000000 0.000000 0.000000 10.000000 
L_front_hand01_02 0.000000 0.000000 0.000000 0.000000 0.000000 0.000000 10.000000 
L_front_hand02_02 0.000000 0.000000 0.000000 0.000000 0.000000 0.000000 10.000000 
L_front_hand03_02 0.000000 0.000000 0.000000 0.000000 0.000000 0.000000 10.000000 
R_forearm 0.000000 0.000000 0.000000 0.000000 0.000000 0.000000 10.000000 
R_front_hand 0.000000 0.000000 0.000000 0.000000 0.000000 0.000000 10.000000 
R_weapon_bone 0.000000 0.000000 0.000000 0.000000 0.000000 0.000000 10.000000 
R_front_hand01_01 0.000000 0.000000 0.000000 0.000000 0.000000 0.000000 10.000000 
R_front_hand02_01 0.000000 0.000000 0.000000 0.000000 0.000000 0.000000 10.000000 
R_front_hand03_01 0.000000 0.000000 0.000000 0.000000 0.000000 0.000000 10.000000 
R_front_hand01_02 0.000000 0.000000 0.000000 0.000000 0.000000 0.000000 10.000000 
R_front_hand02_02 0.000000 0.000000 0.000000 0.000000 0.000000 0.000000 10.000000 
R_front_hand03_02 0.000000 0.000000 0.000000 0.000000 0.000000 0.000000 10.000000 
null_rope01_connect 0.000000 0.000000 0.000000 0.000000 0.000000 0.000000 10.000000 
Rope1_Seg01 0.000000 0.000000 0.000000 0.000000 0.000000 0.000000 10.000000 
Rope1_Seg02 0.000000 0.000000 0.000000 0.000000 0.000000 0.000000 10.000000 
Rope1_Seg03 0.000000 0.000000 0.000000 0.000000 0.000000 0.000000 10.000000 
Rope1_Seg04 0.000000 0.000000 0.000000 0.000000 0.000000 0.000000 10.000000 
Rope1_Seg05 0.000000 0.000000 0.000000 0.000000 0.000000 0.000000 10.000000 
Rope1_Seg06 0.000000 0.000000 0.000000 0.000000 0.000000 0.000000 10.000000 
Rope1_Seg07 0.000000 0.000000 0.000000 0.000000 0.000000 0.000000 10.000000 
Rope1_Seg09 0.000000 0.000000 0.000000 0.000000 0.000000 0.000000 10.000000 
L_mid_hand01 0.000000 0.000000 0.000000 0.000000 0.000000 0.000000 10.000000 
L_mid_hand02 0.000000 0.000000 0.000000 0.000000 0.000000 0.000000 10.000000 
L_mid_hand03 0.000000 0.000000 0.000000 0.000000 0.000000 0.000000 10.000000 
null_rope02_connect 0.000000 0.000000 0.000000 0.000000 0.000000 0.000000 10.000000 
Rope2_Seg01 0.000000 0.000000 0.000000 0.000000 0.000000 0.000000 10.000000 
Rope2_Seg02 0.000000 0.000000 0.000000 0.000000 0.000000 0.000000 10.000000 
Rope2_Seg03 0.000000 0.000000 0.000000 0.000000 0.000000 0.000000 10.000000 
Rope2_Seg04 0.000000 0.000000 0.000000 0.000000 0.000000 0.000000 10.000000 
Rope2_Seg05 0.000000 0.000000 0.000000 0.000000 0.000000 0.000000 10.000000 
Rope2_Seg06 0.000000 0.000000 0.000000 0.000000 0.000000 0.000000 10.000000 
Rope2_Seg07 0.000000 0.000000 0.000000 0.000000 0.000000 0.000000 10.000000 
Rope2_Seg09 0.000000 0.000000 0.000000 0.000000 0.000000 0.000000 10.000000 
R_mid_hand01 0.000000 0.000000 0.000000 0.000000 0.000000 0.000000 10.000000 
R_mid_hand02 0.000000 0.000000 0.000000 0.000000 0.000000 0.000000 10.000000 
R_mid_hand03 0.000000 0.000000 0.000000 0.000000 0.000000 0.000000 10.000000 
spine02 0.000000 0.000000 0.000000 0.000000 0.000000 0.000000 10.000000 
spine03 0.000000 0.000000 0.000000 0.000000 0.000000 0.000000 10.000000 
pelvis 0.000000 0.000000 0.000000 0.000000 0.000000 0.000000 10.000000 
null_rope03_connect 0.000000 0.000000 0.000000 0.000000 0.000000 0.000000 10.000000 
null_rope04_connect 0.000000 0.000000 0.000000 0.000000 0.000000 0.000000 10.000000 
Rope3_Seg01 0.000000 0.000000 0.000000 0.000000 0.000000 0.000000 10.000000 
Rope3_Seg02 0.000000 0.000000 0.000000 0.000000 0.000000 0.000000 10.000000 
Rope3_Seg03 0.000000 0.000000 0.000000 0.000000 0.000000 0.000000 10.000000 
Rope3_Seg04 0.000000 0.000000 0.000000 0.000000 0.000000 0.000000 10.000000 
Rope3_Seg05 0.000000 0.000000 0.000000 0.000000 0.000000 0.000000 10.000000 
Rope3_Seg06 0.000000 0.000000 0.000000 0.000000 0.000000 0.000000 10.000000 
Rope3_Seg07 0.000000 0.000000 0.000000 0.000000 0.000000 0.000000 10.000000 
Rope3_Seg08 0.000000 0.000000 0.000000 0.000000 0.000000 0.000000 10.000000 
Rope3_Seg09 0.000000 0.000000 0.000000 0.000000 0.000000 0.000000 10.000000 
R_rear_hand01 0.000000 0.000000 0.000000 0.000000 0.000000 0.000000 10.000000 
R_rear_hand02 0.000000 0.000000 0.000000 0.000000 0.000000 0.000000 10.000000 
R_rear_hand03 0.000000 0.000000 0.000000 0.000000 0.000000 0.000000 10.000000 
Rope4_Seg01 0.000000 0.000000 0.000000 0.000000 0.000000 0.000000 10.000000 
Rope4_Seg02 0.000000 0.000000 0.000000 0.000000 0.000000 0.000000 10.000000 
Rope4_Seg03 0.000000 0.000000 0.000000 0.000000 0.000000 0.000000 10.000000 
Rope4_Seg04 0.000000 0.000000 0.000000 0.000000 0.000000 0.000000 10.000000 
Rope4_Seg05 0.000000 0.000000 0.000000 0.000000 0.000000 0.000000 10.000000 
Rope4_Seg06 0.000000 0.000000 0.000000 0.000000 0.000000 0.000000 10.000000 
Rope4_Seg07 0.000000 0.000000 0.000000 0.000000 0.000000 0.000000 10.000000 
Rope4_Seg08 0.000000 0.000000 0.000000 0.000000 0.000000 0.000000 10.000000 
Rope4_Seg09 0.000000 0.000000 0.000000 0.000000 0.000000 0.000000 10.000000 
L_rear_hand01 0.000000 0.000000 0.000000 0.000000 0.000000 0.000000 10.000000 
L_rear_hand02 0.000000 0.000000 0.000000 0.000000 0.000000 0.000000 10.000000 
L_rear_hand03 0.000000 0.000000 0.000000 0.000000 0.000000 0.000000 10.000000 
#Beginning of Data. Separated by tabs
#Fr	Tx	Ty	Tz	Rx	Ry	Rz	SF
[MASTER]
5 146.167419 5.282152 547.984253 0.001660 0.001660 0.001660 567.168030
6 247.333344 -6.354085 664.019958 0.001660 0.001660 0.001660 708.616028
[root]
5 -3.238221 -76.708191 1450.438477 -72.624855 -15.303161 -94.927536 1452.469116
6 6.497377 -78.455826 1377.362549 -65.087372 -16.235390 -97.085602 1379.610474
[chest]
5 -84.512650 -34.090519 0.000000 -7.154448 -9.995161 -178.161514 91.129311
6 -84.512650 -34.090519 0.000000 -5.517289 -12.395806 -174.913498 91.129311
[L_mid_tent01]
5 27.299059 22.179167 -249.918732 0.259336 7.632527 70.604469 252.381714
6 27.299053 22.179182 -249.918747 -0.219278 11.072222 69.845703 252.381729
[R_mid_tent01]
5 23.228794 24.509907 226.238495 163.411118 -40.831558 80.865692 228.744751
6 23.228794 24.509907 226.238495 166.141724 -36.326988 75.297569 228.744751
[spine01]
5 -0.361383 -0.195265 0.000000 0.001905 0.001371 18.544746 0.410763
6 -0.361383 -0.195265 0.000000 0.001894 0.001387 17.573238 0.410763
[Bip01_Neck]
5 165.484543 71.581718 0.000119 176.643677 -1.657966 43.431911 180.302734
6 165.484543 71.581718 0.000119 176.643677 -1.657967 43.431911 180.302734
[L_humerus]
5 -13.983130 -135.272980 -120.471481 147.269394 59.182171 -142.406937 181.680161
6 -13.983130 -135.272980 -120.471481 156.538177 43.392372 -139.499908 181.680161
[R_humerus]
5 -13.983309 -135.273102 125.287651 -165.147064 -59.978310 -124.998322 184.909012
6 -13.983309 -135.273102 125.287651 -169.819336 -43.343918 -128.462555 184.909012
[weapon_bone]
5 235.964890 -300.705902 0.000000 0.000000 -89.951546 -128.212341 382.234833
6 235.964890 -300.705902 0.000000 0.000000 -89.951546 -128.212341 382.234833
[Bip01_Head]
5 213.458023 185.677719 12.267612 11.220634 4.750305 -43.854908 283.180237
6 213.517761 185.511078 14.415593 12.587681 3.506898 -43.867336 283.217255
[eye_left_bone]
5 -24.626970 125.451866 -64.772606 0.000000 -90.000000 -99.840431 143.318359
6 -24.626970 125.451866 -64.772606 0.000000 -90.000000 -99.840431 143.318359
[eye_right_bone]
5 -24.626970 125.451866 64.327362 0.000000 -89.965736 80.156380 143.117676
6 -24.626970 125.451866 64.327362 0.000000 -89.980217 80.156387 143.117676
[L_forearm]
5 322.776093 0.000000 -0.000119 0.000416 -0.002310 -110.434738 322.776093
6 322.776093 0.000000 -0.000119 0.000420 -0.002309 -110.615288 322.776093
[L_front_hand]
5 241.149185 -0.042021 -3.300071 -178.667953 -1.835447 -27.422342 241.171753
6 241.149185 -0.042021 -3.300071 -178.667953 -1.835447 -27.422350 241.171753
[L_weapon_bone]
5 156.183838 0.000000 0.000000 0.000014 0.000007 0.000001 156.183838
6 156.183838 0.000000 0.000000 0.000014 0.000007 0.000001 156.183838
[L_front_hand01_01]
5 86.095154 20.947098 -0.655860 -0.351864 -0.488251 73.756912 88.609184
6 86.095154 20.947098 -0.655860 -0.340755 -0.496208 72.096481 88.609184
[L_front_hand02_01]
5 86.935165 -11.437475 24.513514 151.937759 -59.151112 -58.507721 91.046425
6 86.935165 -11.437475 24.513514 149.544266 -58.335350 -55.710854 91.046425
[L_front_hand03_01]
5 86.637497 -14.123976 -20.424902 -151.626480 57.374607 -59.999687 90.126129
6 86.637497 -14.123976 -20.424902 -149.397461 56.551064 -57.336918 90.126129
[L_front_hand01_02]
5 71.020905 -0.000179 0.000030 0.000317 -0.002326 -105.531021 71.020905
6 71.020905 -0.000179 0.000030 0.000316 -0.002326 -105.493759 71.020905
[L_front_hand02_02]
5 71.020927 -0.000119 0.000060 0.000317 -0.002326 -105.531021 71.020927
6 71.020927 -0.000119 0.000060 0.000316 -0.002326 -105.493759 71.020927
[L_front_hand03_02]
5 71.020905 -0.000060 0.000060 0.000317 -0.002326 -105.531021 71.020905
6 71.020905 -0.000060 0.000060 0.000316 -0.002326 -105.493759 71.020905
[R_forearm]
5 322.776428 -0.000060 0.000030 0.201513 0.066960 -109.086105 322.776428
6 322.776428 -0.000060 0.000030 0.201406 0.067280 -109.268173 322.776428
[R_front_hand]
5 238.847015 -0.006795 2.210259 -2.635298 -10.645461 -26.312506 238.857239
6 238.847015 -0.006795 2.210259 -2.635298 -10.645461 -26.312506 238.857239
[R_weapon_bone]
5 155.664093 0.002503 -0.000030 0.003487 0.001180 -90.988914 155.664078
6 155.664093 0.002503 -0.000030 0.003487 0.001180 -90.988930 155.664078
[R_front_hand01_01]
5 87.624611 14.231146 22.918642 -152.176025 -59.222912 58.891872 91.683487
6 87.624611 14.231146 22.918642 -149.707169 -58.394505 56.007458 91.683487
[R_front_hand02_01]
5 89.356956 14.367283 -19.491137 152.293427 57.581059 61.021759 92.579636
6 89.356956 14.367283 -19.491137 149.983444 56.758789 58.275921 92.579636
[R_front_hand03_01]
5 87.286232 -22.307278 -0.143439 0.152228 -0.428396 -74.153709 90.091743
6 87.286232 -22.307278 -0.143439 0.134949 -0.432464 -72.452232 90.091743
[R_front_hand01_02]
5 71.020905 0.000060 0.000119 0.002323 -0.000334 106.381714 71.020905
6 71.020905 0.000060 0.000119 0.002323 -0.000334 106.381714 71.020905
[R_front_hand02_02]
5 71.020844 -0.000030 -0.000119 0.002323 -0.000334 106.381714 71.020836
6 71.020844 -0.000030 -0.000119 0.002323 -0.000334 106.381714 71.020836
[R_front_hand03_02]
5 71.020905 0.000000 0.000030 0.002323 -0.000334 106.381714 71.020905
6 71.020905 0.000000 0.000030 0.002323 -0.000334 106.381714 71.020905
[null_rope01_connect]
5 328.732483 0.000000 -0.000238 -24.570436 -78.318382 59.325378 328.732483
6 328.732483 0.000000 -0.000238 -23.203564 -73.815231 59.715874 328.732483
[Rope1_Seg01]
5 0.000000 0.000000 0.000000 -85.614609 72.846771 99.070473 0.000000
6 0.000000 0.000000 0.000000 -103.957100 76.364296 84.159676 0.000000
[Rope1_Seg02]
5 139.999863 -0.000179 0.000000 -4.768167 1.286306 9.945498 139.999863
6 139.999863 -0.000179 0.000000 -3.762423 3.898591 3.468725 139.999863
[Rope1_Seg03]
5 139.999924 0.000060 -0.000060 -3.414757 -0.229065 11.069348 139.999924
6 139.999924 0.000060 -0.000060 -3.707812 3.148534 4.494681 139.999924
[Rope1_Seg04]
5 139.999924 -0.000060 -0.000119 -2.151134 -3.304349 13.589973 139.999924
6 139.999924 -0.000060 -0.000119 -3.122429 -0.659714 8.482784 139.999924
[Rope1_Seg05]
5 139.999832 0.000119 -0.000060 -0.610467 4.057123 0.742162 139.999832
6 139.999832 0.000119 -0.000060 -3.381034 8.430722 -1.879911 139.999832
[Rope1_Seg06]
5 139.999954 0.000119 -0.000060 -2.843050 14.816479 -12.719347 139.999954
6 139.999954 0.000119 -0.000060 -12.248178 20.546484 -12.520447 139.999954
[Rope1_Seg07]
5 139.999985 0.000060 0.000000 -4.388581 13.027636 -9.125649 139.999985
6 139.999985 0.000060 0.000000 -20.084343 14.357295 -4.532695 139.999985
[Rope1_Seg09]
5 121.602913 0.000119 -0.000089 -89.793175 -1.359789 0.847147 121.602913
6 121.602913 0.000119 -0.000089 -89.793175 -1.359789 0.847147 121.602913
[L_mid_hand01]
5 103.859421 1.038730 8.195221 118.511856 -58.710983 -25.432102 104.187431
6 103.859421 1.038730 8.195221 115.405022 -54.702576 -21.718946 104.187431
[L_mid_hand02]
5 105.572853 -4.139662 -10.864139 -159.626358 40.490173 -59.638317 106.211075
6 105.572853 -4.139662 -10.864139 -156.173538 38.796768 -54.226353 106.211075
[L_mid_hand03]
5 104.641464 17.579376 -3.913581 -9.285495 16.381809 63.801426 106.179977
6 104.641464 17.579376 -3.913581 -10.557028 15.605442 59.191399 106.179977
[null_rope02_connect]
5 328.732849 0.000179 -0.000119 -140.589661 34.598789 2.657037 328.732849
6 328.732849 0.000179 -0.000119 -141.317947 34.640892 -5.502063 328.732849
[Rope2_Seg01]
5 0.000042 0.000125 0.000081 -160.692627 -42.806587 -40.450691 0.000155
6 0.000038 0.000127 0.000102 -176.894913 -42.341671 -33.390759 0.000167
[Rope2_Seg02]
5 139.999741 -0.000060 -0.000119 -42.720314 -13.463349 -14.299017 139.999756
6 139.999741 -0.000060 -0.000119 -25.794853 -3.528609 -14.473362 139.999756
[Rope2_Seg03]
5 140.000107 0.000030 0.000000 -16.497160 0.164447 -10.340703 140.000107
6 140.000107 0.000030 0.000000 -7.756589 1.184827 -6.268372 140.000107
[Rope2_Seg04]
5 139.999802 0.000000 -0.000060 -10.447333 2.800953 -9.539457 139.999802
6 139.999802 0.000000 -0.000060 -7.821204 3.189090 -8.485490 139.999802
[Rope2_Seg05]
5 139.999985 -0.000060 0.000119 -11.181251 7.562944 -15.878250 139.999985
6 139.999985 -0.000060 0.000119 -10.239481 9.462674 -17.205748 139.999985
[Rope2_Seg06]
5 139.999893 -0.000030 -0.000119 -5.180887 8.719316 -12.176601 139.999893
6 139.999893 -0.000030 -0.000119 -4.144093 9.348587 -12.086191 139.999893
[Rope2_Seg07]
5 139.999893 0.000060 -0.000060 -1.818743 5.870153 -6.950369 139.999893
6 139.999893 0.000060 -0.000060 -1.253288 5.669515 -6.506400 139.999893
[Rope2_Seg09]
5 121.338966 0.000089 -0.000060 33.793236 -1.359788 -0.847141 121.338966
6 121.338966 0.000089 -0.000060 33.793236 -1.359788 -0.847141 121.338966
[R_mid_hand01]
5 104.680779 11.144459 -10.335981 -20.898430 43.633060 63.773403 105.778534
6 104.680779 11.144459 -10.335981 -22.984863 42.734234 60.718655 105.778534
[R_mid_hand02]
5 104.070427 2.443552 8.231699 55.882172 -63.749573 31.819656 104.424065
6 104.070427 2.443552 8.231699 58.419525 -61.729706 28.969120 104.424065
[R_mid_hand03]
5 106.028137 -11.221827 -5.996406 -175.717163 15.237029 -71.372292 106.788818
6 106.028137 -11.221827 -5.996406 -175.069138 15.041784 -68.893349 106.788818
[spine02]
5 129.756927 0.001550 0.000119 0.460820 -4.033688 -14.378898 129.756927
6 129.756927 0.001550 0.000119 0.479792 -4.031373 -14.638966 129.756927
[spine03]
5 78.614067 0.081411 -4.898997 2.008288 3.774042 18.162741 78.766602
6 78.614067 0.081355 -4.898996 2.018132 3.770616 18.313368 78.766602
[pelvis]
5 169.435242 0.051022 0.000000 -0.059493 -0.180549 13.470196 169.435257
6 169.435242 0.051022 0.000000 -0.053235 -0.181529 12.618964 169.435257
[null_rope03_connect]
5 -1.257226 -2.466202 137.391083 0.202958 -72.052948 70.078819 137.418976
6 -1.257226 -2.466202 137.391083 1.441694 -64.922302 72.500580 137.418976
[null_rope04_connect]
5 -1.259640 -2.480268 -137.844437 0.202958 -72.052948 70.078819 137.872513
6 -1.259640 -2.480268 -137.844437 1.441694 -64.922302 72.500580 137.872513
[Rope3_Seg01]
5 0.000000 0.000000 0.000000 20.937437 16.071243 -63.399982 0.000000
6 0.000000 0.000000 0.000000 18.759638 8.597203 -62.919834 0.000000
[Rope3_Seg02]
5 139.999924 -0.000119 0.000060 -10.736351 -12.585526 19.284502 139.999924
6 139.999924 -0.000119 0.000060 -12.540483 -14.153513 22.668959 139.999924
[Rope3_Seg03]
5 139.999924 -0.000119 0.000119 -17.225157 -19.202198 20.158577 139.999924
6 139.999924 -0.000119 0.000119 -17.035162 -19.138655 19.853821 139.999924
[Rope3_Seg04]
5 139.999924 0.000119 0.000000 -11.244623 -17.630077 9.999637 139.999924
6 139.999924 0.000119 0.000000 -9.457374 -15.432980 8.185655 139.999924
[Rope3_Seg05]
5 139.999924 -0.000238 0.000060 -0.801569 0.371898 4.109930 139.999924
6 139.999924 -0.000238 0.000060 -1.327854 -1.208620 3.597370 139.999924
[Rope3_Seg06]
5 139.999893 -0.000119 -0.000060 4.339561 9.233402 3.908002 139.999893
6 139.999893 -0.000119 -0.000060 3.421214 8.301412 4.914554 139.999893
[Rope3_Seg07]
5 139.999771 0.000060 -0.000119 2.291394 4.360657 2.792006 139.999771
6 139.999771 0.000060 -0.000119 4.607279 8.584064 5.382335 139.999771
[Rope3_Seg08]
5 139.999985 -0.000060 0.000000 1.404810 2.348786 1.836231 139.999985
6 139.999985 -0.000060 0.000000 3.042395 5.146149 3.942583 139.999985
[Rope3_Seg09]
5 90.185997 -0.000179 -0.000060 89.793228 -1.359877 -0.847183 90.185997
6 90.185997 -0.000179 -0.000060 89.793228 -1.359877 -0.847183 90.185997
[R_rear_hand01]
5 103.366196 -6.073594 -10.757982 -174.893967 24.166168 -67.090828 104.101845
6 103.366196 -6.073594 -10.757982 -173.599045 23.870514 -63.902164 104.101845
[R_rear_hand02]
5 100.509819 12.039542 -7.992327 -17.255272 35.248016 64.724976 101.543350
6 100.509819 12.039542 -7.992327 -19.192892 34.332623 61.336498 101.543350
[R_rear_hand03]
5 101.539970 5.215704 5.435467 75.989662 -65.836792 16.686350 101.819031
6 101.539970 5.215704 5.435467 77.403587 -62.983585 15.125125 101.819031
[Rope4_Seg01]
5 0.000034 -0.000038 -0.000153 -91.960182 22.753044 -82.394585 0.000161
6 0.000045 -0.000038 -0.000153 -90.507156 19.684055 -77.798386 0.000163
[Rope4_Seg02]
5 139.999985 0.000060 0.000119 1.248007 -8.015060 1.957075 139.999985
6 139.999985 0.000060 0.000119 2.168272 -8.803405 3.054984 139.999985
[Rope4_Seg03]
5 139.999924 0.000000 -0.000238 2.253769 -9.065807 2.453144 139.999924
6 139.999924 0.000000 -0.000238 3.599918 -9.700259 3.838557 139.999924
[Rope4_Seg04]
5 139.999985 0.000000 0.000119 4.653210 -13.025081 2.972988 139.999985
6 139.999985 0.000000 0.000119 6.881094 -11.999541 6.236487 139.999985
[Rope4_Seg05]
5 139.999802 -0.000060 -0.000119 7.386931 -12.372256 3.971828 139.999802
6 139.999802 -0.000060 -0.000119 9.501684 -10.701388 7.610772 139.999802
[Rope4_Seg06]
5 139.999924 0.000000 0.000060 1.285859 2.073045 2.340185 139.999924
6 139.999924 0.000000 0.000060 1.226697 -1.867427 0.407076 139.999924
[Rope4_Seg07]
5 139.999802 0.000000 0.000000 -3.086371 11.203932 -0.067500 139.999802
6 139.999802 0.000000 0.000000 -6.883330 3.338531 -6.234288 139.999802
[Rope4_Seg08]
5 139.999924 0.000000 0.000119 -2.102644 5.124509 0.883000 139.999924
6 139.999924 0.000000 0.000119 -5.316006 2.164824 -3.446805 139.999924
[Rope4_Seg09]
5 90.185791 0.000060 0.000060 -135.617828 2.228885 0.850567 90.185791
6 90.185791 0.000060 0.000060 -135.617828 2.228885 0.850567 90.185791
[L_rear_hand01]
5 101.696655 -8.392275 -7.654577 -25.776878 -29.993462 130.987778 102.329041
6 101.696655 -8.392275 -7.654577 -28.953402 -26.963970 137.645660 102.329041
[L_rear_hand02]
5 102.726799 -1.568258 5.773216 80.757904 51.892071 168.841843 102.900848
6 102.726799 -1.568258 5.773216 81.888351 45.378387 170.342453 102.900848
[L_rear_hand03]
5 104.552910 9.721220 -10.420293 -168.841812 -22.136345 -128.226944 105.519653
6 104.552910 9.721220 -10.420293 -166.314163 -20.719036 -135.138702 105.519653
